<svg xmlns="http://www.w3.org/2000/svg" viewBox="0 0 2082.04 310.17"><defs><style>.cls-1{fill:#732282;}.cls-2{fill:#ed6b06;}</style></defs><title>book24konyvwebaruhaz</title><g id="Layer_2" data-name="Layer 2"><g id="Layer_1-2" data-name="Layer 1"><path class="cls-1" d="M32.31,24.59C14.79,24.59,0,39,0,56.5A31.57,31.57,0,0,0,10,79.56V247.29s-9,13.44-9,22C1,286.83,15.24,301,32.78,300.17h9.07c3.62,1,10.44,1,10.44,1l76.94-.15a288.69,288.69,0,0,0,37.35-2.13,115.86,115.86,0,0,0,29.4-7.55,74.76,74.76,0,0,0,33.59-28.74A79,79,0,0,0,242,219.2c.33-29.88-15-52.66-42.76-65.47C219,140.5,229.78,120.9,229.56,97a69.64,69.64,0,0,0-4.19-24.13A68.77,68.77,0,0,0,213.25,52,71.54,71.54,0,0,0,195,36.43a75.83,75.83,0,0,0-27.12-9.84,205.67,205.67,0,0,0-33.83-2.43l-85,0m28,53h36.81c19,0,32.78,2.25,40.71,6,6.8,3.36,10.1,8.58,10.36,20.52a26,26,0,0,1-3.56,13.55c-3.37,6.06-7.39,9.48-13.15,11.54-6.09,2.14-15.83,3.44-28.77,3.42l-42.41,0Zm86.59,161.59c-7.16,5.23-19.23,8.45-36.35,8.41H77v-63h48.45c17.74,0,30.42,3,38,7.86,7.19,4.76,10.69,11.37,10.85,23.11-.14,11.44-3.57,18.37-10.67,23.62M462.48,37.44C441.74,25.7,417.12,20,388.95,20c-20.79,0-39.6,3.25-56.3,9.9A115.74,115.74,0,0,0,290,58.71c-11.68,12.58-20.57,27.81-26.63,45.45s-9.05,36.93-9.05,57.79A183,183,0,0,0,263,219.12c5.83,17.76,14.5,33.16,26.07,46s26.07,22.82,43.16,29.8,36.5,10.44,57.8,10.44,40.62-3.33,57.57-10.15a115,115,0,0,0,43-29.72,126.81,126.81,0,0,0,26.14-45.62q8.64-26.1,8.59-57.54c0-28.32-5.17-53.35-15.74-74.83a114.46,114.46,0,0,0-47.12-50m-14,174.45c-6.34,13.3-14.53,22.63-24.67,28.71a65.28,65.28,0,0,1-34.16,9.27A64.4,64.4,0,0,1,363,244.5a60.36,60.36,0,0,1-21.35-16.09c-6.15-7.13-11.08-16.3-14.65-27.67s-5.35-24.17-5.35-38.57,1.83-26.94,5.35-38.1,8.33-20.18,14.15-27a58.1,58.1,0,0,1,21-15.74,65.31,65.31,0,0,1,26.8-5.42c13.88,0,25.76,3.3,36.21,9.83s18.27,15.94,24.08,29.05S458,143.63,458,162.17h0c0,20.1-3.28,36.63-9.49,49.72M745.44,37.43C724.7,25.71,700.07,20,671.9,20c-20.79,0-39.61,3.27-56.29,9.89A115.75,115.75,0,0,0,573,58.71c-11.69,12.58-20.57,27.8-26.62,45.45s-9.08,36.95-9.08,57.8A182.8,182.8,0,0,0,546,219.12c5.83,17.76,14.5,33.18,26.08,46s26.06,22.82,43.15,29.8,36.51,10.45,57.8,10.45,40.63-3.35,57.6-10.17a115.17,115.17,0,0,0,43-29.72,126.59,126.59,0,0,0,26.13-45.63q8.63-26.08,8.59-57.53c0-28.31-5.16-53.34-15.75-74.83a114.49,114.49,0,0,0-47.12-50m-14,174.23c-6.34,13.29-14.54,22.63-24.67,28.68A68.08,68.08,0,0,1,646,244.3a60.6,60.6,0,0,1-21.36-16.11c-6.17-7.15-11.08-16.3-14.64-27.69s-5.34-24.16-5.34-38.55,1.81-26.95,5.34-38.1,8.33-20.18,14.15-27A58,58,0,0,1,645.1,81.13a65,65,0,0,1,26.8-5.44c13.89,0,25.76,3.29,36.2,9.83s18.27,15.94,24.07,29.05S741,143.41,741,162c0,20.09-3.29,36.62-9.5,49.71m335.64,46a142.17,142.17,0,0,0-12.48-20.47L982.93,135l60.89-57.39c8.84-8.36,14.18-17.79,14.18-28a28.46,28.46,0,0,0-9.22-21.26c-6.07-5.8-14.33-8.62-23.28-8.56-6.82,0-13.05,1.45-18.07,5a101,101,0,0,0-13.85,12.46L900,134.36V58.77C900,47,897.34,37,890.75,29.9c-6.2-6.7-15-10.18-24.49-10.1-9.6-.1-18.44,3.43-24.43,10.35-6.25,7.13-8.78,17-8.79,28.62v195.6c0,8.47.18,15,.56,19.73a38.05,38.05,0,0,0,3.76,14.13,32.07,32.07,0,0,0,12.41,12.49,33.07,33.07,0,0,0,16.49,4.45h.32a32.38,32.38,0,0,0,24-10.07C897.32,288,900,278,900,266V214.49l35.88-34.23,58.89,90.12c2.37,4.07,5.28,8.9,8.55,14.21a47.89,47.89,0,0,0,13.84,14.69c6.11,4.1,13.63,5.9,22,5.89,9.07.05,17.35-2.56,23.42-8.24a27,27,0,0,0,9.07-20.15,44.35,44.35,0,0,0-4.62-19.09"/><path class="cls-2" d="M1291.48,255.51c-6.74-5.21-15.63-7.32-26.12-7.34h-83.64l.92-1.06c6.45-7.87,19-19.59,37.5-34.61,18.63-15.28,31.93-26.44,40-33.71,8.57-7.68,16.64-18,24.48-31A85.87,85.87,0,0,0,1297,102.58a82.78,82.78,0,0,0-22.55-56.81A79,79,0,0,0,1249.55,28c-14.48-6.47-31.52-9.49-51.13-9.49-16.34,0-30.87,2.41-43.5,7.4-12.35,4.93-22.83,11.46-31.15,19.73A82.19,82.19,0,0,0,1105.17,73a76.42,76.42,0,0,0-6.23,29.22c-.05,8.24,2.5,15.92,8.06,21.38a27.54,27.54,0,0,0,20.05,8c8.34.1,16.16-2.86,21.17-9.05,4.35-5.37,7.89-12.38,11-21.1,2.72-8.05,5.1-13.39,5.38-13.6,8.54-12.83,18.57-18.34,32.74-18.5a37.7,37.7,0,0,1,18.1,4.42,32.16,32.16,0,0,1,12.82,12.1A33.58,33.58,0,0,1,1233,103.7a46,46,0,0,1-4.68,19.56A79.06,79.06,0,0,1,1214,143.77a157.25,157.25,0,0,1-24.28,20.72c-6.22,4.17-15.67,12.25-29,24.51s-28.23,27-44.77,44.09c-4.74,5-8.63,11.45-12.2,19.24s-5.55,14.32-5.6,20.43a31.35,31.35,0,0,0,9.76,22.83c6.58,6.51,15.76,9.58,26.08,9.58h136.72c9.19,0,17.39-2.45,23-8.33a28.41,28.41,0,0,0,7.87-20,26.12,26.12,0,0,0-10.16-21.31m225.14-58.85c-7.14-3.15-15.67-4.48-25.86-4.5H1489V54.73c0-11.71-2.52-21.54-8.72-28.69s-15.69-10.45-26.31-10.4a27.93,27.93,0,0,0-19.59,7.72c-4.68,4.4-10.11,10.91-16.71,19.74l-98.89,132c-2.73,3.58-5,6.65-6.88,9.1-2,2.64-3.91,5.36-5.7,8.14a42.7,42.7,0,0,0-4.6,9,28,28,0,0,0-1.7,9.45c-.09,10.56,3.65,20.12,11.08,26.71,7.63,6.85,18.3,9.72,31,9.72h87v28c0,10.25,2.37,19.08,8.16,25.56a28.3,28.3,0,0,0,21.83,9.4h.34c8.41,0,16.21-3.14,21.59-9.18,5.75-6.45,8.07-15.32,8.07-25.77v-28l5.1,0c10.18,0,18.57-1.69,25.1-6.15,6.78-4.64,10.1-12.71,10-21.26.25-10.05-3.85-19.46-12.59-23.32M1429,192.17h-60.42L1429,110.52Z"/><path class="cls-1" d="M1585.8,308.83a31.71,31.71,0,0,1-21.79-8.15q-9.17-8.15-9.17-22.81a29.56,29.56,0,0,1,8.76-21.39,29,29,0,0,1,21.6-9,30.2,30.2,0,0,1,21.9,8.86,29,29,0,0,1,9.06,21.49q0,14.46-9.06,22.71a30.63,30.63,0,0,1-21.3,8.25"/><path class="cls-1" d="M1711,34.17v82.19a118.56,118.56,0,0,1,20.59-19.27,74.2,74.2,0,0,1,22.21-10.65A93.12,93.12,0,0,1,1780,82.89q21.1,0,37.42,8.93a63.73,63.73,0,0,1,25.66,26A63.68,63.68,0,0,1,1851,140a175.45,175.45,0,0,1,2,28.3V275.14q0,16.58-7.58,25.07t-20.12,8.49q-27.3,0-27.3-33.56V181.06q0-26.63-7.93-41T1760,125.77a45.1,45.1,0,0,0-26.73,8.43,50.8,50.8,0,0,0-17.79,23.07q-4.47,12.4-4.47,44.11v73.51q0,16.61-7.49,25.33t-20.82,8.72q-27.7,0-27.7-34.05V33.82q0-16.91,7.23-25.36T1682.54,0q13.23,0,20.68,8.56t7.43,25.26"/><path class="cls-1" d="M2030,277.17v-6.85a123.77,123.77,0,0,1-21,21.18,77.14,77.14,0,0,1-24,12.73,97.47,97.47,0,0,1-29.73,4.17q-20.16,0-36.14-8.35a60.92,60.92,0,0,1-24.74-23Q1884,259.33,1884,226.14V116q0-16.82,7.59-25.13t20.11-8.31q12.71,0,20.51,8.41t7.8,25V205q0,19.31,3.26,32.42T1955,257.93q8.44,7.42,22.87,7.42a46.49,46.49,0,0,0,26.42-8.34,48.6,48.6,0,0,0,18.09-21.75q4.68-11.79,4.68-51.63V115.79q0-16.38,7.69-24.67t20-8.29q12.33,0,19.81,8.19t7.48,24.77V277q0,15.89-7.23,23.83t-18.64,7.95a24.26,24.26,0,0,1-18.85-8.25q-7.43-8.25-7.43-23.12"/></g></g></svg>